<svg width="1800" height="500" viewBox="0 0 1800 500" fill="none" xmlns="http://www.w3.org/2000/svg">
<g clip-path="url(#clip0_345_2)">
<rect width="1800" height="500" fill="#FAFAFA"/>
<path d="M575.592 351V196H527.728V166.24H656.688V196H609.568V351H575.592ZM703.169 353.976C693.745 353.976 685.561 352.405 678.617 349.264C671.673 346.123 666.299 341.659 662.497 335.872C658.694 329.92 656.793 323.059 656.793 315.288C656.793 307.848 658.446 301.235 661.753 295.448C665.059 289.496 670.185 284.536 677.129 280.568C684.073 276.6 692.835 273.789 703.417 272.136L747.561 264.944V289.744L709.617 296.192C703.169 297.349 698.374 299.416 695.233 302.392C692.091 305.368 690.521 309.253 690.521 314.048C690.521 318.677 692.257 322.397 695.729 325.208C699.366 327.853 703.83 329.176 709.121 329.176C715.899 329.176 721.851 327.771 726.977 324.96C732.267 321.984 736.318 317.933 739.129 312.808C742.105 307.683 743.593 302.061 743.593 295.944V261.224C743.593 255.437 741.278 250.643 736.649 246.84C732.185 242.872 726.233 240.888 718.793 240.888C711.849 240.888 705.649 242.789 700.193 246.592C694.902 250.229 691.017 255.107 688.537 261.224L662.001 248.328C664.646 241.219 668.779 235.101 674.401 229.976C680.187 224.685 686.966 220.552 694.737 217.576C702.507 214.6 710.939 213.112 720.033 213.112C731.11 213.112 740.865 215.179 749.297 219.312C757.729 223.28 764.259 228.901 768.889 236.176C773.683 243.285 776.081 251.635 776.081 261.224V351H745.329V327.936L752.273 327.44C748.801 333.227 744.667 338.104 739.873 342.072C735.078 345.875 729.622 348.851 723.505 351C717.387 352.984 710.609 353.976 703.169 353.976ZM882.244 353.976C872.489 353.976 863.479 352.075 855.212 348.272C847.111 344.304 840.663 338.683 835.868 331.408L839.092 324.96V351H808.588V163.264H841.076V242.872L836.116 236.176C840.745 228.901 847.028 223.28 854.964 219.312C862.9 215.179 872.076 213.112 882.492 213.112C895.223 213.112 906.713 216.253 916.964 222.536C927.215 228.819 935.316 237.251 941.268 247.832C947.385 258.413 950.444 270.317 950.444 283.544C950.444 296.605 947.468 308.509 941.516 319.256C935.564 330.003 927.463 338.517 917.212 344.8C906.961 350.917 895.305 353.976 882.244 353.976ZM878.524 324.216C885.964 324.216 892.577 322.48 898.364 319.008C904.151 315.536 908.615 310.741 911.756 304.624C915.063 298.507 916.716 291.48 916.716 283.544C916.716 275.608 915.063 268.664 911.756 262.712C908.615 256.595 904.151 251.8 898.364 248.328C892.577 244.691 885.964 242.872 878.524 242.872C871.415 242.872 864.967 244.608 859.18 248.08C853.559 251.552 849.095 256.429 845.788 262.712C842.647 268.829 841.076 275.773 841.076 283.544C841.076 291.48 842.647 298.507 845.788 304.624C849.095 310.741 853.559 315.536 859.18 319.008C864.967 322.48 871.415 324.216 878.524 324.216ZM1051.35 353.976C1041.59 353.976 1032.58 352.075 1024.32 348.272C1016.22 344.304 1009.77 338.683 1004.97 331.408L1008.2 324.96V351H977.693V163.264H1010.18V242.872L1005.22 236.176C1009.85 228.901 1016.13 223.28 1024.07 219.312C1032.01 215.179 1041.18 213.112 1051.6 213.112C1064.33 213.112 1075.82 216.253 1086.07 222.536C1096.32 228.819 1104.42 237.251 1110.37 247.832C1116.49 258.413 1119.55 270.317 1119.55 283.544C1119.55 296.605 1116.57 308.509 1110.62 319.256C1104.67 330.003 1096.57 338.517 1086.32 344.8C1076.07 350.917 1064.41 353.976 1051.35 353.976ZM1047.63 324.216C1055.07 324.216 1061.68 322.48 1067.47 319.008C1073.26 315.536 1077.72 310.741 1080.86 304.624C1084.17 298.507 1085.82 291.48 1085.82 283.544C1085.82 275.608 1084.17 268.664 1080.86 262.712C1077.72 256.595 1073.26 251.8 1067.47 248.328C1061.68 244.691 1055.07 242.872 1047.63 242.872C1040.52 242.872 1034.07 244.608 1028.29 248.08C1022.66 251.552 1018.2 256.429 1014.89 262.712C1011.75 268.829 1010.18 275.773 1010.18 283.544C1010.18 291.48 1011.75 298.507 1014.89 304.624C1018.2 310.741 1022.66 315.536 1028.29 319.008C1034.07 322.48 1040.52 324.216 1047.63 324.216ZM1160.74 405.56C1157.11 405.56 1153.55 405.229 1150.08 404.568C1146.61 404.072 1143.47 403.08 1140.66 401.592V374.56C1142.81 375.056 1145.37 375.552 1148.34 376.048C1151.49 376.544 1154.38 376.792 1157.02 376.792C1164.46 376.792 1169.84 375.056 1173.14 371.584C1176.62 368.277 1179.67 363.813 1182.32 358.192L1191.25 337.36L1190.75 364.64L1131.98 216.088H1166.94L1208.11 325.704H1195.71L1236.63 216.088H1271.85L1213.07 364.64C1209.6 373.237 1205.38 380.595 1200.42 386.712C1195.46 392.829 1189.68 397.459 1183.06 400.6C1176.62 403.907 1169.18 405.56 1160.74 405.56Z" fill="#18181B"/>
</g>
<defs>
<clipPath id="clip0_345_2">
<rect width="1800" height="500" rx="25" fill="white"/>
</clipPath>
</defs>
</svg>
